<svg xmlns="http://www.w3.org/2000/svg" viewBox="0 0 120 140" fill="none">
  <defs>
    <radialGradient id="pinFill" cx="40%" cy="30%" r="70%">
      <stop offset="0%" stop-color="#E879F9"/>
      <stop offset="40%" stop-color="#A855F7"/>
      <stop offset="100%" stop-color="#6B21A8"/>
    </radialGradient>
    <radialGradient id="glow" cx="50%" cy="50%" r="50%">
      <stop offset="0%" stop-color="#C084FC" stop-opacity="0.7"/>
      <stop offset="100%" stop-color="#C084FC" stop-opacity="0"/>
    </radialGradient>
    <clipPath id="ballClip">
      <circle cx="60" cy="52" r="34"/>
    </clipPath>
  </defs>
  <!-- soft glow under tip -->
  <ellipse cx="60" cy="128" rx="18" ry="4" fill="url(#glow)"/>
  <!-- pin body -->
  <path d="M60 132 C60 132 18 88 18 52 C18 28.8 36.8 10 60 10 C83.2 10 102 28.8 102 52 C102 88 60 132 60 132Z" fill="url(#pinFill)"/>
  <path d="M60 132 C60 132 18 88 18 52 C18 28.8 36.8 10 60 10 C83.2 10 102 28.8 102 52 C102 88 60 132 60 132Z" stroke="#7E22CE" stroke-width="3"/>
  <!-- disco ball -->
  <g clip-path="url(#ballClip)">
    <circle cx="60" cy="52" r="34" fill="#C084FC"/>
    <g stroke="#F5D0FE" stroke-width="1.2" opacity="0.9">
      <path d="M26 52h68M60 18v68"/>
      <path d="M30 30l60 44M30 74l60-44"/>
      <ellipse cx="60" cy="52" rx="22" ry="34"/>
      <ellipse cx="60" cy="52" rx="34" ry="18"/>
      <ellipse cx="60" cy="52" rx="12" ry="34"/>
      <ellipse cx="60" cy="52" rx="34" ry="10"/>
    </g>
    <g fill="#fff" opacity="0.55">
      <rect x="48" y="28" width="7" height="7" transform="rotate(15 51.5 31.5)"/>
      <rect x="62" y="36" width="6" height="6" transform="rotate(-10 65 39)"/>
      <rect x="40" y="48" width="6" height="6"/>
      <rect x="70" y="50" width="7" height="7" transform="rotate(8 73.5 53.5)"/>
      <rect x="52" y="60" width="6" height="6"/>
    </g>
    <!-- M -->
    <path d="M40 68V36l12 22 10-22v32" stroke="#fff" stroke-width="7" stroke-linecap="round" stroke-linejoin="round"/>
  </g>
</svg>
