<svg xmlns="http://www.w3.org/2000/svg" viewBox="0 0 180 48" fill="none">
  <g fill="#fff">
    <path d="M44.2 20.3a11.3 11.3 0 0 0-.97-7.3 11.45 11.45 0 0 0-12.35-5.53A11.45 11.45 0 0 0 21.2 1.5a11.43 11.43 0 0 0-10.82 7.86A11.4 11.4 0 0 0 2.9 16.3a11.44 11.44 0 0 0 1.4 13.45 11.3 11.3 0 0 0 .97 7.3 11.45 11.45 0 0 0 12.35 5.53 11.43 11.43 0 0 0 9.68 5.97h.04a11.43 11.43 0 0 0 10.82-7.86 11.4 11.4 0 0 0 7.48-6.95 11.45 11.45 0 0 0-1.44-13.44zm-7.07 17.2a8.5 8.5 0 0 1-5.45-1.97l.2.11v.35a2.86 2.86 0 0 1-2.86 2.86 2.86 2.86 0 0 1-2.72-1.95 8.53 8.53 0 0 1-3.15.6 8.53 8.53 0 0 1-8.25-6.3l.01-.1a8.5 8.5 0 0 1-3.18-6.04 8.52 8.52 0 0 1 3.1-6.4l-.2-.11v-.36a2.86 2.86 0 0 1 2.86-2.86c.5 0 .98.13 1.4.36a8.53 8.53 0 0 1 5.45-1.98c.92 0 1.82.15 2.66.44a8.53 8.53 0 0 1 8.25 6.3l-.01.1a8.5 8.5 0 0 1 3.18 6.04 8.53 8.53 0 0 1-3.09 6.41l.2.11v.35a2.86 2.86 0 0 1-2.86 2.86c-.5 0-.98-.13-1.4-.36a8.5 8.5 0 0 1-2.65.44z"/>
    <path d="M22.35 30.9a4.28 4.28 0 0 0 2.75-1.1l.03-.02 9.05-5.23a4.17 4.17 0 0 0 1.6-2.12V22.4l-3.82 2.21v5.45a1.43 1.43 0 0 1-1.95 1.33l-.1-.05-7.1-2.58v2.7c0 .76.38 1.47 1.02 1.88.5.32 1.08.48 1.66.46zm-8.9-3.57v-5.53l3.9 1.42v2.83l-2.75 1.58a1.4 1.4 0 0 1-.9.2c-.25-.02-.5-.1-.7-.24-.2-.14-.36-.34-.45-.56a1.4 1.4 0 0 1-.1-.7zm2.8-11.28a4.28 4.28 0 0 0-1.68 1.9l-.02.04v10.46l3.81-2.2v-5.45a1.43 1.43 0 0 1 1.95-1.33l.1.05 7.1 2.58v-2.7a2.15 2.15 0 0 0-1.02-1.88 4.28 4.28 0 0 0-4.41-.46l-5.83 3.37zm12.2 3.35l3.9-2.25a1.42 1.42 0 0 1 1.95.52c.14.24.2.5.2.78 0 .24-.05.47-.16.68-.1.2-.26.38-.45.5l-2.74 1.59-3.9-1.42 1.2-.4zm-4.08 2.96l3.56 1.3 3.56-2.05-3.56-1.3-3.56 2.05zm13.8-2.14v10.45a4.28 4.28 0 0 0 1.7-1.9l.02-.04 5.83-3.37a4.28 4.28 0 0 0 1.68-1.9 4.25 4.25 0 0 0-1.68-5.8l-9.05-3.3v2.7l7.1 2.58a1.43 1.43 0 0 1 .78 1.86c-.1.25-.28.47-.5.63-.23.16-.5.25-.78.25l-.1-.01-3.95-1.45v5.54z"/>
    <text x="56" y="32" font-family="Helvetica Neue, Helvetica, Arial, sans-serif" font-size="22" font-weight="500" letter-spacing="-0.4">OpenAI</text>
  </g>
</svg>
