<svg xmlns="http://www.w3.org/2000/svg" viewBox="0 0 80 80" fill="none">
  <rect width="80" height="80" rx="18" fill="#FF5500"/>
  <path d="M22 48c0-1.5 1-2.5 2.2-2.5S26.5 46.5 26.5 48v8c0 1.5-1 2.5-2.3 2.5S22 57.5 22 56v-8zm7-6c0-1.5 1-2.5 2.3-2.5s2.2 1 2.2 2.5v14c0 1.5-1 2.5-2.2 2.5S29 57.5 29 56V42zm7-8c0-1.5 1-2.5 2.3-2.5S40.5 32.5 40.5 34v22c0 1.5-1 2.5-2.2 2.5S36 57.5 36 56V34zm7-4c0-1.5 1-2.5 2.3-2.5s2.2 1 2.2 2.5v26c0 1.5-1 2.5-2.2 2.5S43 57.5 43 56V30z" fill="white"/>
  <path d="M52 28c6 0 10.5 4.2 11 9.8 2.8.6 5 3.1 5 6.2 0 3.5-2.8 6.3-6.2 6.3H52V28z" fill="white"/>
</svg>
