<svg xmlns="http://www.w3.org/2000/svg" viewBox="0 0 98.1 118" fill="none">
  <path d="M91.8 15.6C80.9-.1 59.2-4.7 43.6 5.2L16.1 22.8C8.6 27.5 3.4 35.2 1.9 43.9c-1.3 7.3-.2 14.8 3.3 21.3-2.4 3.6-4 7.6-4.7 11.8-1.6 8.9.5 18.1 5.7 25.4 10.9 15.7 32.6 20.3 48.2 10.4l27.5-17.5c7.5-4.7 12.7-12.4 14.2-21.2 1.3-7.3.2-14.8-3.3-21.3 2.4-3.6 4-7.6 4.7-11.8 1.7-9-.4-18.2-5.7-25.4z" fill="#FF3E00"/>
  <path d="M41.5 96.5c-7.5 4.8-17.4 2.5-22.2-5-2.3-3.6-3.2-7.9-2.5-12.1.1-.5.3-1.1.4-1.6l.8-2.6 2.3 1.7c.5.4 1.1.7 1.6 1.1a15.7 15.7 0 0 0 12.2 2.2c.6-.1 1.1-.3 1.7-.5l27.5-17.5c2.4-1.5 4-3.8 4.6-6.5.6-2.7.1-5.5-1.3-7.9-2.3-3.6-6.5-5.4-10.8-4.4a10.2 10.2 0 0 0-3.4 1.5L38.5 52a20.5 20.5 0 0 1-6.8-8.8c-1.6-4.5-.7-9.5 2.4-13.1 5.2-7.5 15.4-9.4 22.9-4.2l27.5 17.5c.5.3 1 .7 1.4 1.1a20.4 20.4 0 0 1 4.7 25.4c-.1.5-.3 1.1-.4 1.6l-.8 2.6-2.3-1.7a16.5 16.5 0 0 0-1.6-1.1 15.7 15.7 0 0 0-12.2-2.2c-.6.1-1.1.3-1.7.5L44.5 74.9c-2.4 1.5-4 3.8-4.6 6.5-.6 2.7-.1 5.5 1.3 7.9 2.3 3.6 6.5 5.4 10.8 4.4.8-.2 1.6-.4 2.3-.8l14.5-9.2a20.5 20.5 0 0 1 6.8 8.8c1.6 4.5.7 9.5-2.4 13.1-5.1 7.5-15.4 9.4-22.9 4.2L41.5 96.5z" fill="#fff"/>
</svg>
